#Comment line ignore any data following # character 
#Hierarchical Translation and Rotation (.htr) file 
[Header]	
#Header keywords are followed by a single value 
FileType HTR		#Single word string
DataType HTRS		#Translation followed by rotation and scale data
FileVersion 1		#integer
NumSegments 84		#integer
NumFrames 2		#integer
DataFrameRate 30		#integer, data frame rate in this file
EulerRotationOrder ZYX
CalibrationUnits mm
RotationUnits Degrees
GlobalAxisofGravity Y
BoneLengthAxis Y
ScaleFactor 1.00
[SegmentNames&Hierarchy]
#CHILD	PARENT
MASTER GLOBAL
root MASTER
chest root
L_mid_tent01 root
R_mid_tent01 root
spine01 root
Bip01_Neck chest
L_humerus chest
R_humerus chest
weapon_bone chest
Bip01_Head Bip01_Neck
eye_left_bone Bip01_Head
eye_right_bone Bip01_Head
L_forearm L_humerus
L_front_hand L_forearm
L_weapon_bone L_forearm
L_front_hand01_01 L_front_hand
L_front_hand02_01 L_front_hand
L_front_hand03_01 L_front_hand
L_front_hand01_02 L_front_hand01_01
L_front_hand02_02 L_front_hand02_01
L_front_hand03_02 L_front_hand03_01
R_forearm R_humerus
R_front_hand R_forearm
R_weapon_bone R_forearm
R_front_hand01_01 R_front_hand
R_front_hand02_01 R_front_hand
R_front_hand03_01 R_front_hand
R_front_hand01_02 R_front_hand01_01
R_front_hand02_02 R_front_hand02_01
R_front_hand03_02 R_front_hand03_01
null_rope01_connect L_mid_tent01
Rope1_Seg01 null_rope01_connect
Rope1_Seg02 Rope1_Seg01
Rope1_Seg03 Rope1_Seg02
Rope1_Seg04 Rope1_Seg03
Rope1_Seg05 Rope1_Seg04
Rope1_Seg06 Rope1_Seg05
Rope1_Seg07 Rope1_Seg06
Rope1_Seg09 Rope1_Seg07
L_mid_hand01 Rope1_Seg09
L_mid_hand02 Rope1_Seg09
L_mid_hand03 Rope1_Seg09
null_rope02_connect R_mid_tent01
Rope2_Seg01 null_rope02_connect
Rope2_Seg02 Rope2_Seg01
Rope2_Seg03 Rope2_Seg02
Rope2_Seg04 Rope2_Seg03
Rope2_Seg05 Rope2_Seg04
Rope2_Seg06 Rope2_Seg05
Rope2_Seg07 Rope2_Seg06
Rope2_Seg09 Rope2_Seg07
R_mid_hand01 Rope2_Seg09
R_mid_hand02 Rope2_Seg09
R_mid_hand03 Rope2_Seg09
spine02 spine01
spine03 spine02
pelvis spine03
null_rope03_connect pelvis
null_rope04_connect pelvis
Rope3_Seg01 null_rope03_connect
Rope3_Seg02 Rope3_Seg01
Rope3_Seg03 Rope3_Seg02
Rope3_Seg04 Rope3_Seg03
Rope3_Seg05 Rope3_Seg04
Rope3_Seg06 Rope3_Seg05
Rope3_Seg07 Rope3_Seg06
Rope3_Seg08 Rope3_Seg07
Rope3_Seg09 Rope3_Seg08
R_rear_hand01 Rope3_Seg09
R_rear_hand02 Rope3_Seg09
R_rear_hand03 Rope3_Seg09
Rope4_Seg01 null_rope04_connect
Rope4_Seg02 Rope4_Seg01
Rope4_Seg03 Rope4_Seg02
Rope4_Seg04 Rope4_Seg03
Rope4_Seg05 Rope4_Seg04
Rope4_Seg06 Rope4_Seg05
Rope4_Seg07 Rope4_Seg06
Rope4_Seg08 Rope4_Seg07
Rope4_Seg09 Rope4_Seg08
L_rear_hand01 Rope4_Seg09
L_rear_hand02 Rope4_Seg09
L_rear_hand03 Rope4_Seg09
[BasePosition]
#SegmentName Tx, Ty, Tz, Rx, Ry, Rz, BoneLength
MASTER 0.000000 0.000000 0.000000 -90.000000 0.000000 0.000000 10.000000 
root 0.000000 0.000000 0.000000 0.000000 0.000000 0.000000 10.000000 
chest 0.000000 0.000000 0.000000 0.000000 0.000000 0.000000 10.000000 
L_mid_tent01 0.000000 0.000000 0.000000 0.000000 0.000000 0.000000 10.000000 
R_mid_tent01 0.000000 0.000000 0.000000 0.000000 0.000000 0.000000 10.000000 
spine01 0.000000 0.000000 0.000000 0.000000 0.000000 0.000000 10.000000 
Bip01_Neck 0.000000 0.000000 0.000000 0.000000 0.000000 0.000000 10.000000 
L_humerus 0.000000 0.000000 0.000000 0.000000 0.000000 0.000000 10.000000 
R_humerus 0.000000 0.000000 0.000000 0.000000 0.000000 0.000000 10.000000 
weapon_bone 0.000000 0.000000 0.000000 0.000000 0.000000 0.000000 10.000000 
Bip01_Head 0.000000 0.000000 0.000000 0.000000 0.000000 0.000000 10.000000 
eye_left_bone 0.000000 0.000000 0.000000 0.000000 0.000000 0.000000 10.000000 
eye_right_bone 0.000000 0.000000 0.000000 0.000000 0.000000 0.000000 10.000000 
L_forearm 0.000000 0.000000 0.000000 0.000000 0.000000 0.000000 10.000000 
L_front_hand 0.000000 0.000000 0.000000 0.000000 0.000000 0.000000 10.000000 
L_weapon_bone 0.000000 0.000000 0.000000 0.000000 0.000000 0.000000 10.000000 
L_front_hand01_01 0.000000 0.000000 0.000000 0.000000 0.000000 0.000000 10.000000 
L_front_hand02_01 0.000000 0.000000 0.000000 0.000000 0.000000 0.000000 10.000000 
L_front_hand03_01 0.000000 0.000000 0.000000 0.000000 0.000000 0.000000 10.000000 
L_front_hand01_02 0.000000 0.000000 0.000000 0.000000 0.000000 0.000000 10.000000 
L_front_hand02_02 0.000000 0.000000 0.000000 0.000000 0.000000 0.000000 10.000000 
L_front_hand03_02 0.000000 0.000000 0.000000 0.000000 0.000000 0.000000 10.000000 
R_forearm 0.000000 0.000000 0.000000 0.000000 0.000000 0.000000 10.000000 
R_front_hand 0.000000 0.000000 0.000000 0.000000 0.000000 0.000000 10.000000 
R_weapon_bone 0.000000 0.000000 0.000000 0.000000 0.000000 0.000000 10.000000 
R_front_hand01_01 0.000000 0.000000 0.000000 0.000000 0.000000 0.000000 10.000000 
R_front_hand02_01 0.000000 0.000000 0.000000 0.000000 0.000000 0.000000 10.000000 
R_front_hand03_01 0.000000 0.000000 0.000000 0.000000 0.000000 0.000000 10.000000 
R_front_hand01_02 0.000000 0.000000 0.000000 0.000000 0.000000 0.000000 10.000000 
R_front_hand02_02 0.000000 0.000000 0.000000 0.000000 0.000000 0.000000 10.000000 
R_front_hand03_02 0.000000 0.000000 0.000000 0.000000 0.000000 0.000000 10.000000 
null_rope01_connect 0.000000 0.000000 0.000000 0.000000 0.000000 0.000000 10.000000 
Rope1_Seg01 0.000000 0.000000 0.000000 0.000000 0.000000 0.000000 10.000000 
Rope1_Seg02 0.000000 0.000000 0.000000 0.000000 0.000000 0.000000 10.000000 
Rope1_Seg03 0.000000 0.000000 0.000000 0.000000 0.000000 0.000000 10.000000 
Rope1_Seg04 0.000000 0.000000 0.000000 0.000000 0.000000 0.000000 10.000000 
Rope1_Seg05 0.000000 0.000000 0.000000 0.000000 0.000000 0.000000 10.000000 
Rope1_Seg06 0.000000 0.000000 0.000000 0.000000 0.000000 0.000000 10.000000 
Rope1_Seg07 0.000000 0.000000 0.000000 0.000000 0.000000 0.000000 10.000000 
Rope1_Seg09 0.000000 0.000000 0.000000 0.000000 0.000000 0.000000 10.000000 
L_mid_hand01 0.000000 0.000000 0.000000 0.000000 0.000000 0.000000 10.000000 
L_mid_hand02 0.000000 0.000000 0.000000 0.000000 0.000000 0.000000 10.000000 
L_mid_hand03 0.000000 0.000000 0.000000 0.000000 0.000000 0.000000 10.000000 
null_rope02_connect 0.000000 0.000000 0.000000 0.000000 0.000000 0.000000 10.000000 
Rope2_Seg01 0.000000 0.000000 0.000000 0.000000 0.000000 0.000000 10.000000 
Rope2_Seg02 0.000000 0.000000 0.000000 0.000000 0.000000 0.000000 10.000000 
Rope2_Seg03 0.000000 0.000000 0.000000 0.000000 0.000000 0.000000 10.000000 
Rope2_Seg04 0.000000 0.000000 0.000000 0.000000 0.000000 0.000000 10.000000 
Rope2_Seg05 0.000000 0.000000 0.000000 0.000000 0.000000 0.000000 10.000000 
Rope2_Seg06 0.000000 0.000000 0.000000 0.000000 0.000000 0.000000 10.000000 
Rope2_Seg07 0.000000 0.000000 0.000000 0.000000 0.000000 0.000000 10.000000 
Rope2_Seg09 0.000000 0.000000 0.000000 0.000000 0.000000 0.000000 10.000000 
R_mid_hand01 0.000000 0.000000 0.000000 0.000000 0.000000 0.000000 10.000000 
R_mid_hand02 0.000000 0.000000 0.000000 0.000000 0.000000 0.000000 10.000000 
R_mid_hand03 0.000000 0.000000 0.000000 0.000000 0.000000 0.000000 10.000000 
spine02 0.000000 0.000000 0.000000 0.000000 0.000000 0.000000 10.000000 
spine03 0.000000 0.000000 0.000000 0.000000 0.000000 0.000000 10.000000 
pelvis 0.000000 0.000000 0.000000 0.000000 0.000000 0.000000 10.000000 
null_rope03_connect 0.000000 0.000000 0.000000 0.000000 0.000000 0.000000 10.000000 
null_rope04_connect 0.000000 0.000000 0.000000 0.000000 0.000000 0.000000 10.000000 
Rope3_Seg01 0.000000 0.000000 0.000000 0.000000 0.000000 0.000000 10.000000 
Rope3_Seg02 0.000000 0.000000 0.000000 0.000000 0.000000 0.000000 10.000000 
Rope3_Seg03 0.000000 0.000000 0.000000 0.000000 0.000000 0.000000 10.000000 
Rope3_Seg04 0.000000 0.000000 0.000000 0.000000 0.000000 0.000000 10.000000 
Rope3_Seg05 0.000000 0.000000 0.000000 0.000000 0.000000 0.000000 10.000000 
Rope3_Seg06 0.000000 0.000000 0.000000 0.000000 0.000000 0.000000 10.000000 
Rope3_Seg07 0.000000 0.000000 0.000000 0.000000 0.000000 0.000000 10.000000 
Rope3_Seg08 0.000000 0.000000 0.000000 0.000000 0.000000 0.000000 10.000000 
Rope3_Seg09 0.000000 0.000000 0.000000 0.000000 0.000000 0.000000 10.000000 
R_rear_hand01 0.000000 0.000000 0.000000 0.000000 0.000000 0.000000 10.000000 
R_rear_hand02 0.000000 0.000000 0.000000 0.000000 0.000000 0.000000 10.000000 
R_rear_hand03 0.000000 0.000000 0.000000 0.000000 0.000000 0.000000 10.000000 
Rope4_Seg01 0.000000 0.000000 0.000000 0.000000 0.000000 0.000000 10.000000 
Rope4_Seg02 0.000000 0.000000 0.000000 0.000000 0.000000 0.000000 10.000000 
Rope4_Seg03 0.000000 0.000000 0.000000 0.000000 0.000000 0.000000 10.000000 
Rope4_Seg04 0.000000 0.000000 0.000000 0.000000 0.000000 0.000000 10.000000 
Rope4_Seg05 0.000000 0.000000 0.000000 0.000000 0.000000 0.000000 10.000000 
Rope4_Seg06 0.000000 0.000000 0.000000 0.000000 0.000000 0.000000 10.000000 
Rope4_Seg07 0.000000 0.000000 0.000000 0.000000 0.000000 0.000000 10.000000 
Rope4_Seg08 0.000000 0.000000 0.000000 0.000000 0.000000 0.000000 10.000000 
Rope4_Seg09 0.000000 0.000000 0.000000 0.000000 0.000000 0.000000 10.000000 
L_rear_hand01 0.000000 0.000000 0.000000 0.000000 0.000000 0.000000 10.000000 
L_rear_hand02 0.000000 0.000000 0.000000 0.000000 0.000000 0.000000 10.000000 
L_rear_hand03 0.000000 0.000000 0.000000 0.000000 0.000000 0.000000 10.000000 
#Beginning of Data. Separated by tabs
#Fr	Tx	Ty	Tz	Rx	Ry	Rz	SF
[MASTER]
27 -0.001456 10179.752930 210.479706 0.001660 0.001660 0.001660 10181.929688
28 -0.001500 10496.766602 107.067017 0.001660 0.001660 0.001660 10497.313477
[root]
27 -24.085075 -61.989140 1501.762451 -96.185890 -20.151066 -91.946281 1503.234375
28 -22.045259 -62.366943 1501.558105 -96.372307 -19.985964 -91.566879 1503.014404
[chest]
27 -84.512650 -34.090519 0.000000 -1.823227 1.304943 171.744263 91.129311
28 -84.512650 -34.090519 0.000000 -1.738106 1.396740 174.583374 91.129311
[L_mid_tent01]
27 27.299541 22.179390 -249.918701 -25.491993 23.945303 25.588270 252.381744
28 27.299559 22.179401 -249.918701 -27.394356 24.975195 24.001896 252.381744
[R_mid_tent01]
27 23.228794 24.509907 226.238495 -156.940216 -18.219030 26.959915 228.744751
28 23.228794 24.509907 226.238495 -155.453995 -20.067530 25.697306 228.744751
[spine01]
27 -0.361383 -0.195265 0.000000 0.002011 0.001210 27.948425 0.410763
28 -0.361383 -0.195265 0.000000 0.002007 0.001218 27.504166 0.410763
[Bip01_Neck]
27 165.484543 71.581718 0.000119 176.643677 -1.657967 43.431911 180.302734
28 165.484543 71.581718 0.000119 176.643677 -1.657967 43.431911 180.302734
[L_humerus]
27 -13.983130 -135.272980 -120.471481 -6.443576 66.032387 83.489975 181.680161
28 -13.983130 -135.272980 -120.471481 -6.354975 66.324440 83.591553 181.680161
[R_humerus]
27 -13.983309 -135.273102 125.287651 26.494141 -66.925804 69.195831 184.909012
28 -13.983309 -135.273102 125.287651 26.620411 -67.231613 69.064964 184.909012
[weapon_bone]
27 235.964890 -300.705902 0.000000 0.000000 -89.951546 -128.212341 382.234833
28 235.964890 -300.705902 0.000000 0.000000 -89.951546 -128.212341 382.234833
[Bip01_Head]
27 213.333725 186.021835 7.818655 5.188500 6.007574 -43.833511 283.154633
28 213.337387 186.011658 7.948382 5.180858 5.839276 -43.837879 283.154297
[eye_left_bone]
27 -24.626970 125.451866 -64.772606 0.000000 -90.000000 -99.840431 143.318359
28 -24.626970 125.451866 -64.772606 0.000000 -90.000000 -99.840431 143.318359
[eye_right_bone]
27 -24.626970 125.451866 64.327362 0.000000 -89.965736 80.156380 143.117676
28 -24.626970 125.451866 64.327362 0.000000 -89.965736 80.156380 143.117676
[L_forearm]
27 322.776093 0.000000 -0.000119 0.000415 -0.002310 -110.382835 322.776093
28 322.776093 0.000000 -0.000119 0.000413 -0.002311 -110.284637 322.776093
[L_front_hand]
27 241.149185 -0.042021 -3.300071 -178.667953 -1.835447 -27.422342 241.171753
28 241.149185 -0.042021 -3.300071 -178.667953 -1.835447 -27.422350 241.171753
[L_weapon_bone]
27 156.183838 0.000000 0.000000 0.000014 0.000007 0.000001 156.183838
28 156.183838 0.000000 0.000000 0.000014 0.000007 0.000001 156.183838
[L_front_hand01_01]
27 86.095154 20.947098 -0.655860 -0.349230 -0.490138 73.139862 88.609184
28 86.095154 20.947098 -0.655860 -0.351864 -0.488251 73.756912 88.609184
[L_front_hand02_01]
27 86.935165 -11.437475 24.513514 151.025055 -58.854900 -57.448078 91.046425
28 86.935165 -11.437475 24.513514 151.937759 -59.151127 -58.507748 91.046425
[L_front_hand03_01]
27 86.637497 -14.123976 -20.424902 -150.781448 57.074532 -58.996441 90.126129
28 86.637497 -14.123976 -20.424902 -151.626480 57.374607 -59.999702 90.126129
[L_front_hand01_02]
27 71.020905 -0.000179 0.000030 0.000323 -0.002325 -105.832047 71.020905
28 71.020905 -0.000179 0.000030 0.000324 -0.002325 -105.885551 71.020905
[L_front_hand02_02]
27 71.020927 -0.000119 0.000060 0.000323 -0.002325 -105.832047 71.020927
28 71.020927 -0.000119 0.000060 0.000324 -0.002325 -105.885551 71.020927
[L_front_hand03_02]
27 71.020905 -0.000060 0.000060 0.000323 -0.002325 -105.832047 71.020905
28 71.020905 -0.000060 0.000060 0.000324 -0.002325 -105.885551 71.020905
[R_forearm]
27 322.776428 -0.000060 0.000030 0.201541 0.066874 -109.037537 322.776428
28 322.776428 -0.000060 0.000030 0.201599 0.066701 -108.938995 322.776428
[R_front_hand]
27 238.847015 -0.006795 2.210259 -2.635298 -10.645461 -26.312506 238.857239
28 238.847015 -0.006795 2.210259 -2.635298 -10.645461 -26.312506 238.857239
[R_weapon_bone]
27 155.664093 0.002503 -0.000030 0.003487 0.001180 -90.988930 155.664078
28 155.664093 0.002503 -0.000030 0.003487 0.001180 -90.988930 155.664078
[R_front_hand01_01]
27 87.624611 14.231146 22.918642 -154.293076 -59.856678 61.349701 91.683487
28 87.624611 14.231146 22.918642 -154.633499 -59.950615 61.746044 91.683487
[R_front_hand02_01]
27 89.356956 14.367283 -19.491137 154.283218 58.213089 63.373535 92.579636
28 89.356956 14.367283 -19.491137 154.602661 58.302849 63.744389 92.579636
[R_front_hand03_01]
27 87.286232 -22.307278 -0.143439 0.161369 -0.423469 -75.555016 90.091743
28 87.286232 -22.307278 -0.143439 0.162155 -0.423168 -75.767906 90.091743
[R_front_hand01_02]
27 71.020905 0.000060 0.000119 0.002323 -0.000334 106.381714 71.020905
28 71.020905 0.000060 0.000119 0.002323 -0.000334 106.381714 71.020905
[R_front_hand02_02]
27 71.020844 -0.000030 -0.000119 0.002323 -0.000334 106.381714 71.020836
28 71.020844 -0.000030 -0.000119 0.002323 -0.000334 106.381714 71.020836
[R_front_hand03_02]
27 71.020905 0.000000 0.000030 0.002323 -0.000334 106.381714 71.020905
28 71.020905 0.000000 0.000030 0.002323 -0.000334 106.381714 71.020905
[null_rope01_connect]
27 328.732483 0.000000 -0.000238 -145.109344 -48.487804 -135.922241 328.732483
28 328.732483 0.000000 -0.000238 -145.355835 -46.542980 -134.789474 328.732483
[Rope1_Seg01]
27 -0.000015 -0.000029 0.000058 127.210419 32.671448 171.896805 0.000067
28 -0.000014 -0.000027 0.000054 128.472000 34.292557 172.545700 0.000062
[Rope1_Seg02]
27 139.999863 -0.000179 0.000000 -0.109237 0.970262 -0.830174 139.999863
28 139.999863 -0.000179 0.000000 -0.268092 1.196861 -0.728203 139.999863
[Rope1_Seg03]
27 139.999924 0.000060 -0.000060 -0.153407 1.246623 -1.068357 139.999924
28 139.999924 0.000060 -0.000060 -0.372241 1.556599 -0.943179 139.999924
[Rope1_Seg04]
27 139.999924 -0.000060 -0.000119 -0.232309 1.690369 -1.441159 139.999924
28 139.999924 -0.000060 -0.000119 -0.572077 2.161660 -1.305178 139.999924
[Rope1_Seg05]
27 139.999832 0.000119 -0.000060 -0.584124 5.555479 -5.733242 139.999832
28 139.999832 0.000119 -0.000060 -1.652445 7.043055 -5.910416 139.999832
[Rope1_Seg06]
27 139.999954 0.000119 -0.000060 -1.003291 3.780759 -3.000907 139.999954
28 139.999954 0.000119 -0.000060 -2.143142 3.126343 -0.630778 139.999954
[Rope1_Seg07]
27 139.999985 0.000060 0.000000 -2.217932 -10.760995 14.141782 139.999985
28 139.999985 0.000060 0.000000 -1.859713 -13.149185 15.361630 139.999985
[Rope1_Seg09]
27 121.602913 0.000119 -0.000089 -89.793175 -1.359789 0.847147 121.602913
28 121.602913 0.000119 -0.000089 -89.793175 -1.359789 0.847147 121.602913
[L_mid_hand01]
27 103.859421 1.038730 8.195221 130.544373 -67.584534 -38.866943 104.187431
28 103.859421 1.038730 8.195221 130.544373 -67.584534 -38.866947 104.187431
[L_mid_hand02]
27 105.572853 -4.139662 -10.864139 -168.923172 43.409309 -73.498894 106.211075
28 105.572853 -4.139662 -10.864139 -168.923172 43.409317 -73.498901 106.211075
[L_mid_hand03]
27 104.641464 17.579376 -3.913581 -6.012627 17.808174 74.893669 106.179977
28 104.641464 17.579376 -3.913581 -6.012627 17.808178 74.893677 106.179977
[null_rope02_connect]
27 328.732849 0.000179 -0.000119 -152.290237 67.975571 -51.815407 328.732849
28 328.732849 0.000179 -0.000119 -149.091721 65.759758 -48.920864 328.732849
[Rope2_Seg01]
27 0.000062 0.000058 0.000000 -65.065216 24.124212 -0.434937 0.000085
28 0.000063 0.000054 0.000000 -68.383743 26.816986 -0.516602 0.000083
[Rope2_Seg02]
27 139.999741 -0.000060 -0.000119 -1.988126 3.328680 0.146775 139.999756
28 139.999741 -0.000060 -0.000119 -1.722697 3.614501 -0.230853 139.999756
[Rope2_Seg03]
27 140.000107 0.000030 0.000000 -3.251798 4.435967 0.351016 140.000107
28 140.000107 0.000030 0.000000 -2.736862 4.570362 -0.152137 140.000107
[Rope2_Seg04]
27 139.999802 0.000000 -0.000060 -6.776948 6.880332 0.799883 139.999802
28 139.999802 0.000000 -0.000060 -5.864797 7.307105 -0.174659 139.999802
[Rope2_Seg05]
27 139.999985 -0.000060 0.000119 -41.557468 18.867773 3.167047 139.999985
28 139.999985 -0.000060 0.000119 -28.062786 15.078940 0.412677 139.999985
[Rope2_Seg06]
27 139.999893 -0.000030 -0.000119 -0.286268 -2.478439 1.190170 139.999893
28 139.999893 -0.000030 -0.000119 1.887679 -2.993349 0.724224 139.999893
[Rope2_Seg07]
27 139.999893 0.000060 -0.000060 36.168789 -15.453809 -14.082191 139.999893
28 139.999893 0.000060 -0.000060 21.199677 -16.589720 -5.258931 139.999893
[Rope2_Seg09]
27 121.338966 0.000089 -0.000060 33.793236 -1.359788 -0.847141 121.338966
28 121.338966 0.000089 -0.000060 33.793236 -1.359788 -0.847141 121.338966
[R_mid_hand01]
27 104.680779 11.144459 -10.335981 -16.212063 45.237240 70.462845 105.778534
28 104.680779 11.144459 -10.335981 -16.212063 45.237247 70.462852 105.778534
[R_mid_hand02]
27 104.070427 2.443552 8.231699 49.067368 -67.749771 39.286453 104.424065
28 104.070427 2.443552 8.231699 49.067368 -67.749771 39.286453 104.424065
[R_mid_hand03]
27 106.028137 -11.221827 -5.996406 -177.101105 15.551026 -76.585571 106.788818
28 106.028137 -11.221827 -5.996406 -177.101105 15.551026 -76.585571 106.788818
[spine02]
27 129.756927 0.001550 0.000119 0.453442 -4.034584 -14.308813 129.756927
28 129.756927 0.001550 0.000119 0.443533 -4.035763 -14.166875 129.756927
[spine03]
27 78.614342 0.081576 -4.898997 1.952898 3.804062 17.342920 78.766876
28 78.614349 0.081580 -4.898997 1.947261 3.806698 17.254114 78.766884
[pelvis]
27 169.435242 0.051022 0.000000 -0.066491 -0.178823 15.847276 169.435257
28 169.435242 0.051022 0.000000 -0.065393 -0.179040 15.666718 169.435257
[null_rope03_connect]
27 -1.257226 -2.466202 137.391083 -139.435989 -83.960838 -157.300049 137.418976
28 -1.257226 -2.466202 137.391083 -143.125519 -84.018173 -153.192276 137.418976
[null_rope04_connect]
27 -1.259640 -2.480268 -137.844437 -139.435989 -83.960838 -157.300049 137.872513
28 -1.259640 -2.480268 -137.844437 -143.125519 -84.018173 -153.192276 137.872513
[Rope3_Seg01]
27 -0.000032 0.000000 -0.000094 -117.101891 20.590973 -43.269531 0.000100
28 -0.000032 0.000000 -0.000098 -118.644211 22.512161 -47.312813 0.000103
[Rope3_Seg02]
27 139.999924 -0.000119 0.000060 4.784319 -10.209910 3.704710 139.999924
28 139.999924 -0.000119 0.000060 4.661311 -12.390868 2.931288 139.999924
[Rope3_Seg03]
27 139.999924 -0.000119 0.000119 6.685221 -13.052383 6.421029 139.999924
28 139.999924 -0.000119 0.000119 6.353628 -13.931709 4.650782 139.999924
[Rope3_Seg04]
27 139.999924 0.000119 0.000000 7.856915 -15.502541 11.422324 139.999924
28 139.999924 0.000119 0.000000 7.216108 -13.925677 6.642881 139.999924
[Rope3_Seg05]
27 139.999924 -0.000238 0.000060 4.985101 -9.912789 5.479752 139.999924
28 139.999924 -0.000238 0.000060 5.690863 -9.653622 6.357657 139.999924
[Rope3_Seg06]
27 139.999893 -0.000119 -0.000060 1.812689 -3.113603 0.541242 139.999893
28 139.999893 -0.000119 -0.000060 2.868941 -3.884887 3.191640 139.999893
[Rope3_Seg07]
27 139.999771 0.000060 -0.000119 1.676120 -2.010517 1.273336 139.999771
28 139.999771 0.000060 -0.000119 2.054347 -2.387429 2.170540 139.999771
[Rope3_Seg08]
27 139.999985 -0.000060 0.000000 1.220557 -1.144222 0.775932 139.999985
28 139.999985 -0.000060 0.000000 1.440080 -1.360574 1.334963 139.999985
[Rope3_Seg09]
27 90.185997 -0.000179 -0.000060 89.793228 -1.359877 -0.847183 90.185997
28 90.185997 -0.000179 -0.000060 89.793228 -1.359877 -0.847183 90.185997
[R_rear_hand01]
27 103.366196 -6.073594 -10.757982 -177.714203 24.565960 -73.910950 104.101845
28 103.366196 -6.073594 -10.757982 -177.714203 24.565960 -73.910950 104.101845
[R_rear_hand02]
27 100.509819 12.039542 -7.992327 -12.874829 36.868488 72.167213 101.543350
28 100.509819 12.039542 -7.992327 -12.874829 36.868488 72.167213 101.543350
[R_rear_hand03]
27 101.539970 5.215704 5.435467 71.484581 -71.816628 21.513813 101.819031
28 101.539970 5.215704 5.435467 71.484581 -71.816628 21.513813 101.819031
[Rope4_Seg01]
27 0.000010 0.000038 -0.000114 34.959076 32.300552 -131.653656 0.000121
28 0.000010 0.000038 -0.000114 39.124588 35.260483 -124.264786 0.000121
[Rope4_Seg02]
27 139.999985 0.000060 0.000119 -2.043516 -2.212178 -8.932736 139.999985
28 139.999985 0.000060 0.000119 -1.124628 -4.916690 -10.559219 139.999985
[Rope4_Seg03]
27 139.999924 0.000000 -0.000238 -4.847848 -2.841360 -13.846499 139.999924
28 139.999924 0.000000 -0.000238 -3.690564 -7.091037 -15.124964 139.999924
[Rope4_Seg04]
27 139.999985 0.000000 0.000119 -13.272161 -2.560001 -23.059935 139.999985
28 139.999985 0.000000 0.000119 -10.716682 -8.100832 -20.391518 139.999985
[Rope4_Seg05]
27 139.999802 -0.000060 -0.000119 -4.532218 0.693697 -5.928385 139.999802
28 139.999802 -0.000060 -0.000119 -7.502567 3.761370 -7.037844 139.999802
[Rope4_Seg06]
27 139.999924 0.000000 0.000060 -0.642688 0.169575 -0.929104 139.999924
28 139.999924 0.000000 0.000060 -1.704942 2.866246 -0.976142 139.999924
[Rope4_Seg07]
27 139.999802 0.000000 0.000000 -0.956129 0.277561 -1.316293 139.999802
28 139.999802 0.000000 0.000000 -1.589954 1.264472 -1.682905 139.999802
[Rope4_Seg08]
27 139.999924 0.000000 0.000119 -2.091696 0.175795 -0.758372 139.999924
28 139.999924 0.000000 0.000119 -2.448454 0.777303 -0.974669 139.999924
[Rope4_Seg09]
27 90.185791 0.000060 0.000060 -135.617828 2.228885 0.850567 90.185791
28 90.185791 0.000060 0.000060 -135.617828 2.228885 0.850567 90.185791
[L_rear_hand01]
27 101.696655 -8.392275 -7.654577 -12.874829 -36.868488 107.832764 102.329041
28 101.696655 -8.392275 -7.654577 -12.874834 -36.868492 107.832779 102.329041
[L_rear_hand02]
27 102.726799 -1.568258 5.773216 71.484581 71.816643 158.486160 102.900848
28 102.726799 -1.568258 5.773216 71.484581 71.816628 158.486160 102.900848
[L_rear_hand03]
27 104.552910 9.721220 -10.420293 -177.714203 -24.565960 -106.089035 105.519653
28 104.552910 9.721220 -10.420293 -177.714203 -24.565960 -106.089035 105.519653
